<svg xmlns="http://www.w3.org/2000/svg" xmlns:xlink="http://www.w3.org/1999/xlink" xmlns:lucid="lucid" width="560" height="1741.67"><g transform="translate(-700 -120.99995000000024)" lucid:page-tab-id="0_0"><path d="M1020 141c22.1 0 40 17.9 40 40s-17.9 40-40 40h-80c-22.1 0-40-17.9-40-40s17.9-40 40-40z" stroke="#4c535d" fill="#3a414a"/><use xlink:href="#a" transform="matrix(1,0,0,1,905,145.99995000000024) translate(52.03125 41.66666666666667)"/><path d="M720 307.33a6 6 0 0 1 6-6h148a6 6 0 0 1 6 6v145.34a6 6 0 0 1-6 6H726a6 6 0 0 1-6-6z" stroke="#3a414a" stroke-width="2" fill="#979ea8"/><use xlink:href="#b" transform="matrix(1,0,0,1,732,313.3333333333333) translate(25.20833333333333 23.979166666666668)"/><use xlink:href="#c" transform="matrix(1,0,0,1,732,313.3333333333333) translate(8.473958333333329 48.97916666666667)"/><use xlink:href="#d" transform="matrix(1,0,0,1,732,313.3333333333333) translate(93.16145833333334 48.97916666666667)"/><use xlink:href="#e" transform="matrix(1,0,0,1,732,313.3333333333333) translate(43.59375 73.97916666666667)"/><use xlink:href="#f" transform="matrix(1,0,0,1,732,313.3333333333333) translate(68.44791666666667 73.97916666666667)"/><use xlink:href="#g" transform="matrix(1,0,0,1,732,313.3333333333333) translate(16.463541666666657 98.97916666666667)"/><use xlink:href="#h" transform="matrix(1,0,0,1,732,313.3333333333333) translate(34.88020833333333 123.97916666666667)"/><path d="M1080 307.33a6 6 0 0 1 6-6h148a6 6 0 0 1 6 6v145.34a6 6 0 0 1-6 6h-148a6 6 0 0 1-6-6z" stroke="#000" stroke-width="2" fill="#979ea8"/><use xlink:href="#i" transform="matrix(1,0,0,1,1092,313.33333333333337) translate(28.26481481481482 15.28888888888889)"/><use xlink:href="#j" transform="matrix(1,0,0,1,1092,313.33333333333337) translate(31.95432098765432 38.22222222222222)"/><use xlink:href="#k" transform="matrix(1,0,0,1,1092,313.33333333333337) translate(34.10432098765432 61.15555555555556)"/><use xlink:href="#l" transform="matrix(1,0,0,1,1092,313.33333333333337) translate(27.733950617283952 84.08888888888889)"/><use xlink:href="#m" transform="matrix(1,0,0,1,1092,313.33333333333337) translate(5.384567901234568 107.02222222222223)"/><use xlink:href="#n" transform="matrix(1,0,0,1,1092,313.33333333333337) translate(82.83765432098767 107.02222222222223)"/><use xlink:href="#o" transform="matrix(1,0,0,1,1092,313.33333333333337) translate(98.76358024691359 107.02222222222223)"/><use xlink:href="#p" transform="matrix(1,0,0,1,1092,313.33333333333337) translate(57.382716049382715 129.95555555555555)"/><path d="M1062 181h92a6 6 0 0 1 6 6v92.7" stroke="#3a414a" stroke-width="3" fill="none"/><path d="M1062.04 182.5h-1.63l.1-1.5-.05-1.5h1.6z" stroke="#3a414a" stroke-width=".05" fill="#3a414a"/><path d="M1160 295.48l-4.63-14.27h9.27z" stroke="#3a414a" stroke-width="3" fill="#3a414a"/><path d="M898 181h-92a6 6 0 0 0-6 6v92.7" stroke="#3a414a" stroke-width="3" fill="none"/><path d="M899.5 181l.05 1.5h-1.6v-3h1.64z" stroke="#3a414a" stroke-width=".05" fill="#3a414a"/><path d="M800 295.48l-4.63-14.27h9.26z" stroke="#3a414a" stroke-width="3" fill="#3a414a"/><path d="M720 546a6 6 0 0 1 6-6h148a6 6 0 0 1 6 6v145.33a6 6 0 0 1-6 6H726a6 6 0 0 1-6-6z" stroke="#3a414a" stroke-width="2" fill="#979ea8"/><use xlink:href="#q" transform="matrix(1,0,0,1,732,552) translate(5.86666666666666 46.37916666666667)"/><use xlink:href="#r" transform="matrix(1,0,0,1,732,552) translate(53.15555555555555 46.37916666666667)"/><use xlink:href="#s" transform="matrix(1,0,0,1,732,552) translate(95.82222222222222 46.37916666666667)"/><use xlink:href="#t" transform="matrix(1,0,0,1,732,552) translate(3.4962962962962933 71.97916666666669)"/><use xlink:href="#u" transform="matrix(1,0,0,1,732,552) translate(82.78518518518518 71.97916666666669)"/><use xlink:href="#v" transform="matrix(1,0,0,1,732,552) translate(14.755555555555553 97.57916666666668)"/><path d="M1080 546a6 6 0 0 1 6-6h148a6 6 0 0 1 6 6v145.33a6 6 0 0 1-6 6h-148a6 6 0 0 1-6-6z" stroke="#3a414a" stroke-width="2" fill="#979ea8"/><use xlink:href="#w" transform="matrix(1,0,0,1,1092,552) translate(9.153703703703705 23.66388888888889)"/><use xlink:href="#x" transform="matrix(1,0,0,1,1092,552) translate(93.93271604938272 23.66388888888889)"/><use xlink:href="#y" transform="matrix(1,0,0,1,1092,552) translate(33.75925925925926 46.59722222222222)"/><use xlink:href="#z" transform="matrix(1,0,0,1,1092,552) translate(28.26481481481482 69.53055555555555)"/><use xlink:href="#A" transform="matrix(1,0,0,1,1092,552) translate(28.71604938271605 92.46388888888889)"/><use xlink:href="#B" transform="matrix(1,0,0,1,1092,552) translate(86.04938271604938 92.46388888888889)"/><use xlink:href="#C" transform="matrix(1,0,0,1,1092,552) translate(34.05123456790123 115.39722222222223)"/><path d="M800 461.17v57.2" stroke="#3a414a" stroke-width="3" fill="none"/><path d="M801.5 461.2h-3v-1.53h3z" stroke="#3a414a" stroke-width=".05" fill="#3a414a"/><path d="M800 534.15l-4.63-14.27h9.26z" stroke="#3a414a" stroke-width="3" fill="#3a414a"/><path d="M1160 461.17v57.2" stroke="#3a414a" stroke-width="3" fill="none"/><path d="M1161.5 461.2h-3v-1.53h3z" stroke="#3a414a" stroke-width=".05" fill="#3a414a"/><path d="M1160 534.15l-4.63-14.27h9.27z" stroke="#3a414a" stroke-width="3" fill="#3a414a"/><path d="M720 794.53a6 6 0 0 1 6-6h148a6 6 0 0 1 6 6v165.6a6 6 0 0 1-6 6H726a6 6 0 0 1-6-6z" stroke="#3a414a" stroke-width="2" fill="#979ea8"/><use xlink:href="#D" transform="matrix(1,0,0,1,732,800.5333333333333) translate(27.14074074074074 17.26666666666666)"/><use xlink:href="#E" transform="matrix(1,0,0,1,732,800.5333333333333) translate(72.11851851851853 17.26666666666666)"/><use xlink:href="#F" transform="matrix(1,0,0,1,732,800.5333333333333) translate(14.133333333333333 42.86666666666666)"/><use xlink:href="#G" transform="matrix(1,0,0,1,732,800.5333333333333) translate(69.77777777777777 42.86666666666666)"/><use xlink:href="#H" transform="matrix(1,0,0,1,732,800.5333333333333) translate(110.01481481481483 42.86666666666666)"/><use xlink:href="#I" transform="matrix(1,0,0,1,732,800.5333333333333) translate(7.674074074074063 68.46666666666667)"/><use xlink:href="#J" transform="matrix(1,0,0,1,732,800.5333333333333) translate(72.74074074074073 68.46666666666667)"/><use xlink:href="#K" transform="matrix(1,0,0,1,732,800.5333333333333) translate(4.622222222222227 94.06666666666666)"/><use xlink:href="#L" transform="matrix(1,0,0,1,732,800.5333333333333) translate(108.85925925925926 94.06666666666666)"/><use xlink:href="#M" transform="matrix(1,0,0,1,732,800.5333333333333) translate(31.881481481481472 119.66666666666669)"/><use xlink:href="#N" transform="matrix(1,0,0,1,732,800.5333333333333) translate(-6.548148148148158 145.26666666666668)"/><path d="M1080 794.53a6 6 0 0 1 6-6h148a6 6 0 0 1 6 6v165.6a6 6 0 0 1-6 6h-148a6 6 0 0 1-6-6z" stroke="#3a414a" stroke-width="2" fill="#979ea8"/><g><use xlink:href="#O" transform="matrix(1,0,0,1,1092,800.5333333333334) translate(6.48888888888888 55.56666666666667)"/><use xlink:href="#P" transform="matrix(1,0,0,1,1092,800.5333333333334) translate(53.77777777777777 55.56666666666667)"/><use xlink:href="#Q" transform="matrix(1,0,0,1,1092,800.5333333333334) translate(15.911111111111104 81.16666666666669)"/><use xlink:href="#R" transform="matrix(1,0,0,1,1092,800.5333333333334) translate(39.61481481481481 81.16666666666669)"/><use xlink:href="#S" transform="matrix(1,0,0,1,1092,800.5333333333334) translate(8.207407407407402 106.76666666666668)"/><use xlink:href="#T" transform="matrix(1,0,0,1,1092,800.5333333333334) translate(68.59259259259258 106.76666666666668)"/><use xlink:href="#U" transform="matrix(1,0,0,1,1092,800.5333333333334) translate(91.05185185185185 106.76666666666668)"/></g><path d="M882.5 877.33h175.88" stroke="#3a414a" stroke-width="3" fill="none"/><path d="M882.54 878.83H881v-3h1.54z" stroke="#3a414a" stroke-width=".05" fill="#3a414a"/><path d="M1074.14 877.33l-14.26 4.64v-9.27z" stroke="#3a414a" stroke-width="3" fill="#3a414a"/><path d="M800 699.83v67.08" stroke="#3a414a" stroke-width="3" fill="none"/><path d="M801.5 699.87h-3v-1.54h3z" stroke="#3a414a" stroke-width=".05" fill="#3a414a"/><path d="M800 782.68l-4.63-14.27h9.26z" stroke="#3a414a" stroke-width="3" fill="#3a414a"/><path d="M901.5 1028.67a6 6 0 0 1 6-6h148a6 6 0 0 1 6 6v165.6a6 6 0 0 1-6 6h-148a6 6 0 0 1-6-6z" stroke="#3a414a" stroke-width="3" fill="#979ea8"/><g><use xlink:href="#V" transform="matrix(1,0,0,1,913.4999500000002,1034.6666666666665) translate(3.854166666666657 34.22916666666667)"/><use xlink:href="#W" transform="matrix(1,0,0,1,913.4999500000002,1034.6666666666665) translate(97.78125 34.22916666666667)"/><use xlink:href="#X" transform="matrix(1,0,0,1,913.4999500000002,1034.6666666666665) translate(40.38020833333333 59.22916666666667)"/><use xlink:href="#Y" transform="matrix(1,0,0,1,913.4999500000002,1034.6666666666665) translate(29.921875 84.22916666666667)"/><use xlink:href="#Z" transform="matrix(1,0,0,1,913.4999500000002,1034.6666666666665) translate(19.046874999999993 109.22916666666667)"/><use xlink:href="#aa" transform="matrix(1,0,0,1,913.4999500000002,1034.6666666666665) translate(104.97395833333334 109.22916666666667)"/><use xlink:href="#ab" transform="matrix(1,0,0,1,913.4999500000002,1034.6666666666665) translate(35.67708333333333 134.22916666666666)"/><use xlink:href="#ac" transform="matrix(1,0,0,1,913.4999500000002,1034.6666666666665) translate(76.36458333333333 134.22916666666666)"/></g><path d="M901.5 1268.67a6 6 0 0 1 6-6h148a6 6 0 0 1 6 6v165.6a6 6 0 0 1-6 6h-148a6 6 0 0 1-6-6z" stroke="#3a414a" stroke-width="3" fill="#979ea8"/><g><use xlink:href="#ad" transform="matrix(1,0,0,1,913.4999500000002,1274.6666666666665) translate(23.67708333333333 58.29166666666667)"/><use xlink:href="#ae" transform="matrix(1,0,0,1,913.4999500000002,1274.6666666666665) translate(23.911458333333336 83.29166666666667)"/><use xlink:href="#af" transform="matrix(1,0,0,1,913.4999500000002,1274.6666666666665) translate(37.822916666666664 108.29166666666667)"/></g><path d="M901.5 1508.67a6 6 0 0 1 6-6h148a6 6 0 0 1 6 6v165.6a6 6 0 0 1-6 6h-148a6 6 0 0 1-6-6z" stroke="#3a414a" stroke-width="3" fill="#979ea8"/><g><use xlink:href="#ag" transform="matrix(1,0,0,1,913.4999500000002,1514.6666666666665) translate(5.473958333333329 34.22916666666667)"/><use xlink:href="#ah" transform="matrix(1,0,0,1,913.4999500000002,1514.6666666666665) translate(82.25520833333333 34.22916666666667)"/><use xlink:href="#ai" transform="matrix(1,0,0,1,913.4999500000002,1514.6666666666665) translate(19.249999999999993 59.22916666666667)"/><use xlink:href="#aj" transform="matrix(1,0,0,1,913.4999500000002,1514.6666666666665) translate(65.07291666666666 59.22916666666667)"/><use xlink:href="#ae" transform="matrix(1,0,0,1,913.4999500000002,1514.6666666666665) translate(23.911458333333336 84.22916666666667)"/><use xlink:href="#ak" transform="matrix(1,0,0,1,913.4999500000002,1514.6666666666665) translate(17.479166666666664 109.22916666666667)"/><use xlink:href="#al" transform="matrix(1,0,0,1,913.4999500000002,1514.6666666666665) translate(83.11458333333334 109.22916666666667)"/><use xlink:href="#am" transform="matrix(1,0,0,1,913.4999500000002,1514.6666666666665) translate(13.390624999999993 134.22916666666666)"/><use xlink:href="#an" transform="matrix(1,0,0,1,913.4999500000002,1514.6666666666665) translate(63.265625 134.22916666666666)"/></g><path d="M1021.5 1762.67c22.1 0 40 17.9 40 40s-17.9 40-40 40h-80c-22.1 0-40-17.9-40-40s17.9-40 40-40z" stroke="#4c535d" fill="#3a414a"/><g><use xlink:href="#ao" transform="matrix(1,0,0,1,906.4999500000002,1767.6666666666665) translate(57.03645833333333 41.66666666666667)"/></g><path d="M981.5 1683.27v58.28" stroke="#3a414a" stroke-width="3" fill="none"/><path d="M983 1683.3h-3v-1.53h3z" stroke="#3a414a" stroke-width=".05" fill="#3a414a"/><path d="M981.5 1757.3l-4.63-14.25h9.26z" stroke="#3a414a" stroke-width="3" fill="#3a414a"/><path d="M1160 968.63v19.52a6 6 0 0 1-6 6H987.5a6 6 0 0 0-6 6v.4" stroke="#3a414a" stroke-width="3" fill="none"/><path d="M1161.5 968.67h-3v-1.54h3z" stroke="#3a414a" stroke-width=".05" fill="#3a414a"/><path d="M981.5 1016.3l-4.63-14.25h9.26z" stroke="#3a414a" stroke-width="3" fill="#3a414a"/><path d="M1160 699.83v67.08" stroke="#3a414a" stroke-width="3" fill="none"/><path d="M1161.5 699.87h-3v-1.54h3z" stroke="#3a414a" stroke-width=".05" fill="#3a414a"/><path d="M1160 782.68l-4.63-14.27h9.27z" stroke="#3a414a" stroke-width="3" fill="#3a414a"/><path d="M981.5 1203.27v37.28" stroke="#3a414a" stroke-width="3" fill="none"/><path d="M983 1203.3h-3v-1.53h3z" stroke="#3a414a" stroke-width=".05" fill="#3a414a"/><path d="M981.5 1256.3l-4.63-14.25h9.26z" stroke="#3a414a" stroke-width="3" fill="#3a414a"/><path d="M981.5 1443.27v37.28" stroke="#3a414a" stroke-width="3" fill="none"/><path d="M983 1443.3h-3v-1.53h3z" stroke="#3a414a" stroke-width=".05" fill="#3a414a"/><path d="M981.5 1496.3l-4.63-14.25h9.26z" stroke="#3a414a" stroke-width="3" fill="#3a414a"/><defs><path fill="#ececf1" d="M631-137c179 0 314-70 314-231 0-71-25-127-75-166s-141-77-272-115c-165-47-285-106-360-175s-112-154-112-255c0-245 231-397 495-397 206 0 369 89 449 218 43 68 65 142 65 223H942c0-184-129-283-321-283-172 0-299 76-301 236 0 59 26 109 76 150s135 78 256 113c205 59 345 116 436 256 35 53 50 119 50 193-2 256-231 398-507 390C333 12 90-129 80-422h193c0 187 160 285 358 285" id="ap"/><path fill="#ececf1" d="M456 20C285 20 205-92 206-268v-671H9v-143h197v-262h185v262h202v143H391v671c-9 125 92 149 207 118V0c-49 13-96 20-142 20" id="aq"/><path fill="#ececf1" d="M561-1102c238-4 403 126 403 351v498c0 99 13 178 38 237V0H808c-11-21-19-59-26-114C696-25 593 20 474 20c-199 0-368-130-365-320 4-251 214-359 490-356h180v-85c-1-135-86-212-229-212-115 0-232 67-233 171H131c20-205 206-316 430-320zM294-326c0 117 90 185 207 185 122 0 239-75 278-162v-222H634c-227 0-340 66-340 199" id="ar"/><path fill="#ececf1" d="M663-916c-163-27-288 18-338 148V0H140v-1082h180l3 125c61-97 147-145 258-145 36 0 63 5 82 14v172" id="as"/><g id="a"><use transform="matrix(0.010416666666666668,0,0,0.010416666666666668,0,0)" xlink:href="#ap"/><use transform="matrix(0.010416666666666668,0,0,0.010416666666666668,12.656250000000002,0)" xlink:href="#aq"/><use transform="matrix(0.010416666666666668,0,0,0.010416666666666668,19.625000000000004,0)" xlink:href="#ar"/><use transform="matrix(0.010416666666666668,0,0,0.010416666666666668,31.22916666666667,0)" xlink:href="#as"/><use transform="matrix(0.010416666666666668,0,0,0.010416666666666668,38.96875000000001,0)" xlink:href="#aq"/></g><path fill="#fff" d="M730-137c145 0 253-29 323-105v-327H716v-156h528v534C1148-51 964 20 729 20c-394 0-598-279-607-678v-127c-5-410 194-690 585-691 310-1 499 171 537 447h-192c-36-193-151-289-344-289-285 0-393 220-393 528v119c-5 296 140 534 415 534" id="at"/><path fill="#fff" d="M599-131c141 0 220-65 285-146l113 88C906-50 770 20 589 20 281 21 93-214 93-545c0-223 93-397 233-485 74-48 154-72 240-72 300 2 449 218 445 537v77H278c0 197 129 357 321 357zm227-509c-3-180-88-310-260-310-170 0-264 140-282 310h542" id="au"/><path fill="#fff" d="M589-945c-131 0-219 81-264 174V0H140v-1082h175l6 136c83-104 191-156 324-156 229 0 346 129 346 387V0H806v-716c-2-153-65-229-217-229" id="av"/><path fill="#fff" d="M663-916c-163-27-288 18-338 148V0H140v-1082h180l3 125c61-97 147-145 258-145 36 0 63 5 82 14v172" id="aw"/><path fill="#fff" d="M561-1102c238-4 403 126 403 351v498c0 99 13 178 38 237V0H808c-11-21-19-59-26-114C696-25 593 20 474 20c-199 0-368-130-365-320 4-251 214-359 490-356h180v-85c-1-135-86-212-229-212-115 0-232 67-233 171H131c20-205 206-316 430-320zM294-326c0 117 90 185 207 185 122 0 239-75 278-162v-222H634c-227 0-340 66-340 199" id="ax"/><path fill="#fff" d="M456 20C285 20 205-92 206-268v-671H9v-143h197v-262h185v262h202v143H391v671c-9 125 92 149 207 118V0c-49 13-96 20-142 20" id="ay"/><g id="b"><use transform="matrix(0.010416666666666668,0,0,0.010416666666666668,0,0)" xlink:href="#at"/><use transform="matrix(0.010416666666666668,0,0,0.010416666666666668,14.531250000000002,0)" xlink:href="#au"/><use transform="matrix(0.010416666666666668,0,0,0.010416666666666668,25.833333333333336,0)" xlink:href="#av"/><use transform="matrix(0.010416666666666668,0,0,0.010416666666666668,37.60416666666667,0)" xlink:href="#au"/><use transform="matrix(0.010416666666666668,0,0,0.010416666666666668,48.90625000000001,0)" xlink:href="#aw"/><use transform="matrix(0.010416666666666668,0,0,0.010416666666666668,55.70833333333334,0)" xlink:href="#ax"/><use transform="matrix(0.010416666666666668,0,0,0.010416666666666668,67.31250000000001,0)" xlink:href="#ay"/><use transform="matrix(0.010416666666666668,0,0,0.010416666666666668,74.28125000000001,0)" xlink:href="#au"/></g><path fill="#fff" d="M1161-1018c0 201-122 330-278 388l342 618V0h-206L703-589H361V0H168v-1456h482c310-2 511 139 511 438zm-193 0c0-187-120-280-313-280H361v552h295c179 3 313-101 312-272" id="az"/><path fill="#fff" d="M520 20C244 20 95-247 95-550c0-298 151-550 427-552 127 0 227 43 301 130v-564h185V0H838l-9-116C755-25 652 20 520 20zm48-965c-210 0-288 177-288 416 0 218 87 392 286 392 117 0 203-53 257-158v-497c-55-102-140-153-255-153" id="aA"/><path fill="#fff" d="M584 20C278 26 81-227 91-551c10-320 175-545 491-551 308-5 503 247 494 573-9 322-175 543-492 549zm-2-970c-208 0-305 185-305 421 0 216 106 398 307 398 211 0 307-186 307-420 0-214-109-399-309-399" id="aB"/><path fill="#fff" d="M1240-945c-141 0-250 95-250 227V0H804v-709c0-157-77-236-231-236-121 0-204 52-249 155V0H139v-1082h175l5 120c79-93 186-140 321-140 151 0 254 58 309 174 69-98 181-174 345-174 237 0 362 126 362 377V0h-185v-714c-2-159-67-231-231-231" id="aC"/><g id="c"><use transform="matrix(0.010416666666666668,0,0,0.010416666666666668,0,0)" xlink:href="#az"/><use transform="matrix(0.010416666666666668,0,0,0.010416666666666668,13.135416666666668,0)" xlink:href="#ax"/><use transform="matrix(0.010416666666666668,0,0,0.010416666666666668,24.739583333333336,0)" xlink:href="#av"/><use transform="matrix(0.010416666666666668,0,0,0.010416666666666668,36.51041666666667,0)" xlink:href="#aA"/><use transform="matrix(0.010416666666666668,0,0,0.010416666666666668,48.54166666666667,0)" xlink:href="#aB"/><use transform="matrix(0.010416666666666668,0,0,0.010416666666666668,60.70833333333334,0)" xlink:href="#aC"/></g><path fill="#fff" d="M539-677L361-492V0H169v-1456h192v720l647-720h232L667-813 1285 0h-230" id="aD"/><path fill="#fff" d="M494-271l252-811h198L509 167C425 381 299 474 84 421V271c167 16 242-37 283-173l41-110L22-1082h202" id="aE"/><g id="d"><use transform="matrix(0.010416666666666668,0,0,0.010416666666666668,0,0)" xlink:href="#aD"/><use transform="matrix(0.010416666666666668,0,0,0.010416666666666668,13.104166666666668,0)" xlink:href="#au"/><use transform="matrix(0.010416666666666668,0,0,0.010416666666666668,24.270833333333336,0)" xlink:href="#aE"/></g><path fill="#fff" d="M704-1390c-164-38-297 28-288 194v114h231v143H416V0H231v-939H60v-143h171v-111c-12-274 208-416 483-347" id="aF"/><g id="e"><use transform="matrix(0.010416666666666668,0,0,0.010416666666666668,0,0)" xlink:href="#aB"/><use transform="matrix(0.010416666666666668,0,0,0.010416666666666668,12.166666666666668,0)" xlink:href="#aF"/></g><path fill="#fff" d="M832-402c-1-179-119-264-303-265H390v-151h139c164 0 281-91 281-250 0-171-85-256-255-256-154 0-265 99-263 250H107c-4-235 205-402 448-402 266 0 444 150 440 412-2 148-109 272-229 317 147 45 249 158 251 341 3 262-197 426-461 426C299 20 91-135 94-384h186c-2 156 116 253 276 253 176 0 277-96 276-271" id="aG"/><path fill="#fff" d="M574-1476c351 0 454 237 460 615v240c0 217-37 378-111 483S733 20 576 20c-346 0-454-246-461-616v-247c0-214 37-373 111-477s190-156 348-156zm275 905c0-337 59-752-275-753-95 0-160 38-207 107-80 118-66 409-67 625 0 157 22 273 68 348s115 113 208 113c91 0 160-35 204-106s69-182 69-334" id="aH"/><g id="f"><use transform="matrix(0.010416666666666668,0,0,0.010416666666666668,0,0)" xlink:href="#aG"/><use transform="matrix(0.010416666666666668,0,0,0.010416666666666668,11.979166666666668,0)" xlink:href="#aH"/></g><path fill="#fff" d="M362-157h690V0H169v-1456h193v1299" id="aI"/><path fill="#fff" d="M1098-255l208-827h185L1176 0h-150L763-820 507 0H357L43-1082h184l213 810 252-810h149" id="aJ"/><path fill="#fff" d="M277-555c0 244 77 420 297 424 127 2 249-93 255-210h175C980-127 805 20 574 20 258 20 81-222 92-562c11-319 164-533 481-540 237-5 426 165 431 392H829c-7-133-115-242-256-240-209 4-296 166-296 395" id="aK"/><path fill="#fff" d="M538-131c121 0 232-49 232-156 0-50-20-88-56-117-73-60-334-92-420-143-92-55-162-110-162-238 0-190 192-317 400-317 223 0 414 129 413 338H759c0-108-110-186-227-186-119 0-215 53-215 159 0 45 18 78 53 101 76 52 331 90 416 139 98 57 169 115 169 251C955-92 760 20 538 20c-176 0-314-68-386-174-38-55-57-115-57-179h185c6 129 116 202 258 202" id="aL"/><g id="g"><use transform="matrix(0.010416666666666668,0,0,0.010416666666666668,0,0)" xlink:href="#aI"/><use transform="matrix(0.010416666666666668,0,0,0.010416666666666668,11.479166666666668,0)" xlink:href="#aB"/><use transform="matrix(0.010416666666666668,0,0,0.010416666666666668,23.645833333333336,0)" xlink:href="#aJ"/><use transform="matrix(0.010416666666666668,0,0,0.010416666666666668,39.67708333333334,0)" xlink:href="#au"/><use transform="matrix(0.010416666666666668,0,0,0.010416666666666668,50.97916666666668,0)" xlink:href="#aw"/><use transform="matrix(0.010416666666666668,0,0,0.010416666666666668,58.000000000000014,0)" xlink:href="#aK"/><use transform="matrix(0.010416666666666668,0,0,0.010416666666666668,69.16666666666669,0)" xlink:href="#ax"/><use transform="matrix(0.010416666666666668,0,0,0.010416666666666668,80.77083333333336,0)" xlink:href="#aL"/><use transform="matrix(0.010416666666666668,0,0,0.010416666666666668,91.77083333333336,0)" xlink:href="#au"/></g><g id="h"><use transform="matrix(0.010416666666666668,0,0,0.010416666666666668,0,0)" xlink:href="#aI"/><use transform="matrix(0.010416666666666668,0,0,0.010416666666666668,11.479166666666668,0)" xlink:href="#au"/><use transform="matrix(0.010416666666666668,0,0,0.010416666666666668,22.781249999999996,0)" xlink:href="#ay"/><use transform="matrix(0.010416666666666668,0,0,0.010416666666666668,29.75,0)" xlink:href="#ay"/><use transform="matrix(0.010416666666666668,0,0,0.010416666666666668,36.71875,0)" xlink:href="#au"/><use transform="matrix(0.010416666666666668,0,0,0.010416666666666668,48.020833333333336,0)" xlink:href="#aw"/><use transform="matrix(0.010416666666666668,0,0,0.010416666666666668,55.23958333333334,0)" xlink:href="#aL"/></g><path fill="#fff" d="M212-179c-10-28-35-45-73-45-59 0-87 40-87 99 0 60 29 101 89 101 43 0 62-24 78-52l27 14C228-24 195 4 139 4 59 4 22-46 18-125c-6-104 99-153 187-111 19 9 31 26 39 46" id="aM"/><path fill="#fff" d="M141-36C126-15 110 5 73 4 37 3 15-17 15-53c-1-64 63-63 125-63 3-35-9-54-41-54-24 1-41 7-42 31l-33-3c5-37 33-52 76-52 45 0 72 20 72 64v82c-1 20 7 32 28 27v20c-31 9-61-2-59-35zM48-53c0 20 12 33 32 33 41-3 63-29 60-74-43 2-92-5-92 41" id="aN"/><path fill="#fff" d="M24 0v-261h32V0H24" id="aO"/><path fill="#fff" d="M96-169c-40 0-48 33-48 73s9 75 48 75c24 0 41-14 43-38l32 2c-6 37-31 61-74 61-59 0-76-41-82-99-10-93 101-131 147-64 4 7 5 14 7 22l-32 3c-4-21-16-35-41-35" id="aP"/><path fill="#fff" d="M84 4C-5 8 30-112 23-190h32v120c0 31 7 50 39 49 72-2 45-101 50-169h31l1 190h-30c-1-10 1-25-2-33-11 22-28 36-60 37" id="aQ"/><path fill="#fff" d="M59-47c-2 24 18 29 38 22v24C64 9 27 4 27-40v-127H5v-23h24l9-43h21v43h35v23H59v120" id="aR"/><path fill="#fff" d="M100-194c63 0 86 42 84 106H49c0 40 14 67 53 68 26 1 43-12 49-29l28 8c-11 28-37 45-77 45C44 4 14-33 15-96c1-61 26-98 85-98zm52 81c6-60-76-77-97-28-3 7-6 17-6 28h103" id="aS"/><g id="i"><use transform="matrix(0.053086419753086415,0,0,0.053086419753086415,0,0)" xlink:href="#aM"/><use transform="matrix(0.053086419753086415,0,0,0.053086419753086415,13.749382716049382,0)" xlink:href="#aN"/><use transform="matrix(0.053086419753086415,0,0,0.053086419753086415,24.366666666666667,0)" xlink:href="#aO"/><use transform="matrix(0.053086419753086415,0,0,0.053086419753086415,28.560493827160492,0)" xlink:href="#aP"/><use transform="matrix(0.053086419753086415,0,0,0.053086419753086415,38.11604938271605,0)" xlink:href="#aQ"/><use transform="matrix(0.053086419753086415,0,0,0.053086419753086415,48.733333333333334,0)" xlink:href="#aO"/><use transform="matrix(0.053086419753086415,0,0,0.053086419753086415,52.92716049382716,0)" xlink:href="#aN"/><use transform="matrix(0.053086419753086415,0,0,0.053086419753086415,63.54444444444444,0)" xlink:href="#aR"/><use transform="matrix(0.053086419753086415,0,0,0.053086419753086415,68.85308641975308,0)" xlink:href="#aS"/></g><path fill="#fff" d="M233-177c-1 41-23 64-60 70L243 0h-38l-65-103H63V0H30v-248c88 3 205-21 203 71zM63-129c60-2 137 13 137-47 0-61-80-42-137-45v92" id="aT"/><path fill="#fff" d="M117-194c89-4 53 116 60 194h-32v-121c0-31-8-49-39-48C34-167 62-67 57 0H25l-1-190h30c1 10-1 24 2 32 11-22 29-35 61-36" id="aU"/><path fill="#fff" d="M85-194c31 0 48 13 60 33l-1-100h32l1 261h-30c-2-10 0-23-3-31C134-8 116 4 85 4 32 4 16-35 15-94c0-66 23-100 70-100zm9 24c-40 0-46 34-46 75 0 40 6 74 45 74 42 0 51-32 51-76 0-42-9-74-50-73" id="aV"/><path fill="#fff" d="M100-194c62-1 85 37 85 99 1 63-27 99-86 99S16-35 15-95c0-66 28-99 85-99zM99-20c44 1 53-31 53-75 0-43-8-75-51-75s-53 32-53 75 10 74 51 75" id="aW"/><path fill="#fff" d="M210-169c-67 3-38 105-44 169h-31v-121c0-29-5-50-35-48C34-165 62-65 56 0H25l-1-190h30c1 10-1 24 2 32 10-44 99-50 107 0 11-21 27-35 58-36 85-2 47 119 55 194h-31v-121c0-29-5-49-35-48" id="aX"/><g id="j"><use transform="matrix(0.053086419753086415,0,0,0.053086419753086415,0,0)" xlink:href="#aT"/><use transform="matrix(0.053086419753086415,0,0,0.053086419753086415,13.749382716049382,0)" xlink:href="#aN"/><use transform="matrix(0.053086419753086415,0,0,0.053086419753086415,24.366666666666667,0)" xlink:href="#aU"/><use transform="matrix(0.053086419753086415,0,0,0.053086419753086415,34.98395061728395,0)" xlink:href="#aV"/><use transform="matrix(0.053086419753086415,0,0,0.053086419753086415,45.60123456790124,0)" xlink:href="#aW"/><use transform="matrix(0.053086419753086415,0,0,0.053086419753086415,56.21851851851853,0)" xlink:href="#aX"/></g><path fill="#fff" d="M190 0L58-211 59 0H30v-248h39L202-35l-2-213h31V0h-41" id="aY"/><path fill="#fff" d="M115-194c53 0 69 39 70 98 0 66-23 100-70 100C84 3 66-7 56-30L54 0H23l1-261h32v101c10-23 28-34 59-34zm-8 174c40 0 45-34 45-75 0-40-5-75-45-74-42 0-51 32-51 76 0 43 10 73 51 73" id="aZ"/><path fill="#fff" d="M114-163C36-179 61-72 57 0H25l-1-190h30c1 12-1 29 2 39 6-27 23-49 58-41v29" id="ba"/><g id="k"><use transform="matrix(0.053086419753086415,0,0,0.053086419753086415,0,0)" xlink:href="#aY"/><use transform="matrix(0.053086419753086415,0,0,0.053086419753086415,13.749382716049382,0)" xlink:href="#aQ"/><use transform="matrix(0.053086419753086415,0,0,0.053086419753086415,24.366666666666667,0)" xlink:href="#aX"/><use transform="matrix(0.053086419753086415,0,0,0.053086419753086415,40.239506172839505,0)" xlink:href="#aZ"/><use transform="matrix(0.053086419753086415,0,0,0.053086419753086415,50.85679012345679,0)" xlink:href="#aS"/><use transform="matrix(0.053086419753086415,0,0,0.053086419753086415,61.47407407407407,0)" xlink:href="#ba"/></g><path fill="#fff" d="M87 75C49 33 22-17 22-94c0-76 28-126 65-167h31c-38 41-64 92-64 168S80 34 118 75H87" id="bb"/><path fill="#fff" d="M-5 72V49h209v23H-5" id="bc"/><path fill="#fff" d="M143 0L79-87 56-68V0H24v-261h32v163l83-92h37l-77 82L181 0h-38" id="bd"/><path fill="#fff" d="M179-190L93 31C79 59 56 82 12 73V49c39 6 53-20 64-50L1-190h34L92-34l54-156h33" id="be"/><path fill="#fff" d="M33-261c38 41 65 92 65 168S71 34 33 75H2C39 34 66-17 66-93S39-220 2-261h31" id="bf"/><g id="l"><use transform="matrix(0.053086419753086415,0,0,0.053086419753086415,0,0)" xlink:href="#bb"/><use transform="matrix(0.053086419753086415,0,0,0.053086419753086415,6.317283950617283,0)" xlink:href="#ba"/><use transform="matrix(0.053086419753086415,0,0,0.053086419753086415,12.634567901234567,0)" xlink:href="#aU"/><use transform="matrix(0.053086419753086415,0,0,0.053086419753086415,23.25185185185185,0)" xlink:href="#aV"/><use transform="matrix(0.053086419753086415,0,0,0.053086419753086415,33.86913580246913,0)" xlink:href="#bc"/><use transform="matrix(0.053086419753086415,0,0,0.053086419753086415,44.486419753086416,0)" xlink:href="#bd"/><use transform="matrix(0.053086419753086415,0,0,0.053086419753086415,54.04197530864197,0)" xlink:href="#aS"/><use transform="matrix(0.053086419753086415,0,0,0.053086419753086415,64.65925925925926,0)" xlink:href="#be"/><use transform="matrix(0.053086419753086415,0,0,0.053086419753086415,74.21481481481482,0)" xlink:href="#bf"/></g><path fill="#fff" d="M206 0h-36l-40-164L89 0H53L-1-190h32L70-26l43-164h34l41 164 42-164h31" id="bg"/><g id="m"><use transform="matrix(0.053086419753086415,0,0,0.053086419753086415,0,0)" xlink:href="#aZ"/><use transform="matrix(0.053086419753086415,0,0,0.053086419753086415,10.617283950617283,0)" xlink:href="#aS"/><use transform="matrix(0.053086419753086415,0,0,0.053086419753086415,21.234567901234566,0)" xlink:href="#aR"/><use transform="matrix(0.053086419753086415,0,0,0.053086419753086415,26.54320987654321,0)" xlink:href="#bg"/><use transform="matrix(0.053086419753086415,0,0,0.053086419753086415,40.29259259259259,0)" xlink:href="#aS"/><use transform="matrix(0.053086419753086415,0,0,0.053086419753086415,50.909876543209876,0)" xlink:href="#aS"/><use transform="matrix(0.053086419753086415,0,0,0.053086419753086415,61.527160493827154,0)" xlink:href="#aU"/></g><path fill="#fff" d="M27 0v-27h64v-190l-56 39v-29l58-41h29v221h61V0H27" id="bh"/><use transform="matrix(0.053086419753086415,0,0,0.053086419753086415,0,0)" xlink:href="#bh" id="n"/><g id="o"><use transform="matrix(0.053086419753086415,0,0,0.053086419753086415,0,0)" xlink:href="#aN"/><use transform="matrix(0.053086419753086415,0,0,0.053086419753086415,10.617283950617283,0)" xlink:href="#aU"/><use transform="matrix(0.053086419753086415,0,0,0.053086419753086415,21.234567901234566,0)" xlink:href="#aV"/></g><path fill="#fff" d="M101-251c82-7 93 87 43 132L82-64C71-53 59-42 53-27h129V0H18c2-99 128-94 128-182 0-28-16-43-45-43s-46 15-49 41l-32-3c6-41 34-60 81-64" id="bi"/><path fill="#fff" d="M54-142c48-35 137-8 131 61C196 18 31 33 14-55l32-4c7 23 22 37 52 37 35-1 51-22 54-58 4-55-73-65-99-34H22l8-134h141v27H59" id="bj"/><g id="p"><use transform="matrix(0.053086419753086415,0,0,0.053086419753086415,0,0)" xlink:href="#bi"/><use transform="matrix(0.053086419753086415,0,0,0.053086419753086415,10.617283950617283,0)" xlink:href="#bj"/></g><path fill="#fff" d="M185-189c-5-48-123-54-124 2 14 75 158 14 163 119 3 78-121 87-175 55-17-10-28-26-33-46l33-7c5 56 141 63 141-1 0-78-155-14-162-118-5-82 145-84 179-34 5 7 8 16 11 25" id="bk"/><path fill="#fff" d="M115-194c55 1 70 41 70 98S169 2 115 4C84 4 66-9 55-30l1 105H24l-1-265h31l2 30c10-21 28-34 59-34zm-8 174c40 0 45-34 45-75s-6-73-45-74c-42 0-51 32-51 76 0 43 10 73 51 73" id="bl"/><path fill="#fff" d="M24-231v-30h32v30H24zM24 0v-190h32V0H24" id="bm"/><g id="q"><use transform="matrix(0.05925925925925927,0,0,0.05925925925925927,0,0)" xlink:href="#bk"/><use transform="matrix(0.05925925925925927,0,0,0.05925925925925927,14.222222222222225,0)" xlink:href="#bl"/><use transform="matrix(0.05925925925925927,0,0,0.05925925925925927,26.074074074074076,0)" xlink:href="#aO"/><use transform="matrix(0.05925925925925927,0,0,0.05925925925925927,30.75555555555556,0)" xlink:href="#bm"/><use transform="matrix(0.05925925925925927,0,0,0.05925925925925927,35.437037037037044,0)" xlink:href="#aR"/></g><path fill="#fff" d="M194 0L95-120 63-95V0H30v-248h33v124l119-124h40L117-140 236 0h-42" id="bn"/><g id="r"><use transform="matrix(0.05925925925925927,0,0,0.05925925925925927,0,0)" xlink:href="#bn"/><use transform="matrix(0.05925925925925927,0,0,0.05925925925925927,14.222222222222225,0)" xlink:href="#aS"/><use transform="matrix(0.05925925925925927,0,0,0.05925925925925927,26.074074074074076,0)" xlink:href="#be"/></g><g id="s"><use transform="matrix(0.05925925925925927,0,0,0.05925925925925927,0,0)" xlink:href="#bm"/><use transform="matrix(0.05925925925925927,0,0,0.05925925925925927,4.681481481481482,0)" xlink:href="#aU"/><use transform="matrix(0.05925925925925927,0,0,0.05925925925925927,16.533333333333335,0)" xlink:href="#aR"/><use transform="matrix(0.05925925925925927,0,0,0.05925925925925927,22.459259259259262,0)" xlink:href="#aW"/></g><path fill="#fff" d="M110-160c48 1 74 30 74 79 0 53-28 85-80 85-65 0-83-55-86-122-5-90 50-162 133-122 14 7 22 21 27 39l-31 6c-5-40-67-38-82-6-9 19-15 44-15 74 11-20 30-34 60-33zm-7 138c34 0 49-23 49-58s-16-56-50-56c-29 0-50 16-49 49 1 36 15 65 50 65" id="bo"/><path fill="#fff" d="M16-82v-28h88v28H16" id="bp"/><path fill="#fff" d="M30 0v-248h33v221h125V0H30" id="bq"/><g id="t"><use transform="matrix(0.05925925925925927,0,0,0.05925925925925927,0,0)" xlink:href="#bo"/><use transform="matrix(0.05925925925925927,0,0,0.05925925925925927,11.851851851851853,0)" xlink:href="#bp"/><use transform="matrix(0.05925925925925927,0,0,0.05925925925925927,18.903703703703705,0)" xlink:href="#bq"/><use transform="matrix(0.05925925925925927,0,0,0.05925925925925927,30.75555555555556,0)" xlink:href="#aS"/><use transform="matrix(0.05925925925925927,0,0,0.05925925925925927,42.607407407407415,0)" xlink:href="#aR"/><use transform="matrix(0.05925925925925927,0,0,0.05925925925925927,48.53333333333334,0)" xlink:href="#aR"/><use transform="matrix(0.05925925925925927,0,0,0.05925925925925927,54.45925925925926,0)" xlink:href="#aS"/><use transform="matrix(0.05925925925925927,0,0,0.05925925925925927,66.31111111111112,0)" xlink:href="#ba"/></g><path fill="#fff" d="M30-248c87 1 191-15 191 75 0 78-77 80-158 76V0H30v-248zm33 125c57 0 124 11 124-50 0-59-68-47-124-48v98" id="br"/><path fill="#fff" d="M135-143c-3-34-86-38-87 0 15 53 115 12 119 90S17 21 10-45l28-5c4 36 97 45 98 0-10-56-113-15-118-90-4-57 82-63 122-42 12 7 21 19 24 35" id="bs"/><g id="u"><use transform="matrix(0.05925925925925927,0,0,0.05925925925925927,0,0)" xlink:href="#br"/><use transform="matrix(0.05925925925925927,0,0,0.05925925925925927,14.222222222222225,0)" xlink:href="#aN"/><use transform="matrix(0.05925925925925927,0,0,0.05925925925925927,26.074074074074076,0)" xlink:href="#ba"/><use transform="matrix(0.05925925925925927,0,0,0.05925925925925927,33.12592592592593,0)" xlink:href="#aR"/><use transform="matrix(0.05925925925925927,0,0,0.05925925925925927,39.05185185185185,0)" xlink:href="#bs"/></g><g id="v"><use transform="matrix(0.05925925925925927,0,0,0.05925925925925927,0,0)" xlink:href="#bb"/><use transform="matrix(0.05925925925925927,0,0,0.05925925925925927,7.051851851851853,0)" xlink:href="#bd"/><use transform="matrix(0.05925925925925927,0,0,0.05925925925925927,17.718518518518522,0)" xlink:href="#aS"/><use transform="matrix(0.05925925925925927,0,0,0.05925925925925927,29.570370370370377,0)" xlink:href="#be"/><use transform="matrix(0.05925925925925927,0,0,0.05925925925925927,40.23703703703704,0)" xlink:href="#bc"/><use transform="matrix(0.05925925925925927,0,0,0.05925925925925927,52.088888888888896,0)" xlink:href="#bl"/><use transform="matrix(0.05925925925925927,0,0,0.05925925925925927,63.94074074074075,0)" xlink:href="#aN"/><use transform="matrix(0.05925925925925927,0,0,0.05925925925925927,75.7925925925926,0)" xlink:href="#ba"/><use transform="matrix(0.05925925925925927,0,0,0.05925925925925927,82.84444444444445,0)" xlink:href="#aR"/><use transform="matrix(0.05925925925925927,0,0,0.05925925925925927,88.77037037037037,0)" xlink:href="#bs"/><use transform="matrix(0.05925925925925927,0,0,0.05925925925925927,99.43703703703704,0)" xlink:href="#bf"/></g><g id="w"><use transform="matrix(0.053086419753086415,0,0,0.053086419753086415,0,0)" xlink:href="#aM"/><use transform="matrix(0.053086419753086415,0,0,0.053086419753086415,13.749382716049382,0)" xlink:href="#aN"/><use transform="matrix(0.053086419753086415,0,0,0.053086419753086415,24.366666666666667,0)" xlink:href="#aO"/><use transform="matrix(0.053086419753086415,0,0,0.053086419753086415,28.560493827160492,0)" xlink:href="#aP"/><use transform="matrix(0.053086419753086415,0,0,0.053086419753086415,38.11604938271605,0)" xlink:href="#aQ"/><use transform="matrix(0.053086419753086415,0,0,0.053086419753086415,48.733333333333334,0)" xlink:href="#aO"/><use transform="matrix(0.053086419753086415,0,0,0.053086419753086415,52.92716049382716,0)" xlink:href="#aN"/><use transform="matrix(0.053086419753086415,0,0,0.053086419753086415,63.54444444444444,0)" xlink:href="#aR"/><use transform="matrix(0.053086419753086415,0,0,0.053086419753086415,68.85308641975308,0)" xlink:href="#aS"/></g><g id="x"><use transform="matrix(0.053086419753086415,0,0,0.053086419753086415,0,0)" xlink:href="#bn"/><use transform="matrix(0.053086419753086415,0,0,0.053086419753086415,12.74074074074074,0)" xlink:href="#aS"/><use transform="matrix(0.053086419753086415,0,0,0.053086419753086415,23.358024691358025,0)" xlink:href="#be"/></g><path fill="#fff" d="M137 0h-34L2-248h35l83 218 83-218h36" id="bt"/><g id="y"><use transform="matrix(0.053086419753086415,0,0,0.053086419753086415,0,0)" xlink:href="#bt"/><use transform="matrix(0.053086419753086415,0,0,0.053086419753086415,11.307407407407407,0)" xlink:href="#aN"/><use transform="matrix(0.053086419753086415,0,0,0.053086419753086415,21.92469135802469,0)" xlink:href="#ba"/><use transform="matrix(0.053086419753086415,0,0,0.053086419753086415,28.241975308641972,0)" xlink:href="#bm"/><use transform="matrix(0.053086419753086415,0,0,0.053086419753086415,32.4358024691358,0)" xlink:href="#aN"/><use transform="matrix(0.053086419753086415,0,0,0.053086419753086415,43.053086419753086,0)" xlink:href="#aZ"/><use transform="matrix(0.053086419753086415,0,0,0.053086419753086415,53.67037037037037,0)" xlink:href="#aO"/><use transform="matrix(0.053086419753086415,0,0,0.053086419753086415,57.864197530864196,0)" xlink:href="#aS"/></g><path fill="#fff" d="M108 0H70L1-190h34L89-25l56-165h34" id="bu"/><g id="z"><use transform="matrix(0.053086419753086415,0,0,0.053086419753086415,0,0)" xlink:href="#bb"/><use transform="matrix(0.053086419753086415,0,0,0.053086419753086415,6.317283950617283,0)" xlink:href="#bd"/><use transform="matrix(0.053086419753086415,0,0,0.053086419753086415,15.872839506172838,0)" xlink:href="#aS"/><use transform="matrix(0.053086419753086415,0,0,0.053086419753086415,26.490123456790123,0)" xlink:href="#be"/><use transform="matrix(0.053086419753086415,0,0,0.053086419753086415,36.04567901234568,0)" xlink:href="#bc"/><use transform="matrix(0.053086419753086415,0,0,0.053086419753086415,46.662962962962965,0)" xlink:href="#bu"/><use transform="matrix(0.053086419753086415,0,0,0.053086419753086415,56.21851851851853,0)" xlink:href="#aN"/><use transform="matrix(0.053086419753086415,0,0,0.053086419753086415,66.8358024691358,0)" xlink:href="#ba"/><use transform="matrix(0.053086419753086415,0,0,0.053086419753086415,73.15308641975308,0)" xlink:href="#bf"/></g><g id="A"><use transform="matrix(0.053086419753086415,0,0,0.053086419753086415,0,0)" xlink:href="#aZ"/><use transform="matrix(0.053086419753086415,0,0,0.053086419753086415,10.617283950617283,0)" xlink:href="#aN"/><use transform="matrix(0.053086419753086415,0,0,0.053086419753086415,21.234567901234566,0)" xlink:href="#bs"/><use transform="matrix(0.053086419753086415,0,0,0.053086419753086415,30.79012345679012,0)" xlink:href="#aS"/><use transform="matrix(0.053086419753086415,0,0,0.053086419753086415,41.407407407407405,0)" xlink:href="#aV"/></g><g id="B"><use transform="matrix(0.053086419753086415,0,0,0.053086419753086415,0,0)" xlink:href="#aW"/><use transform="matrix(0.053086419753086415,0,0,0.053086419753086415,10.617283950617283,0)" xlink:href="#aU"/></g><g id="C"><use transform="matrix(0.053086419753086415,0,0,0.053086419753086415,0,0)" xlink:href="#ba"/><use transform="matrix(0.053086419753086415,0,0,0.053086419753086415,6.317283950617283,0)" xlink:href="#aU"/><use transform="matrix(0.053086419753086415,0,0,0.053086419753086415,16.934567901234566,0)" xlink:href="#aV"/><use transform="matrix(0.053086419753086415,0,0,0.053086419753086415,27.55185185185185,0)" xlink:href="#bc"/><use transform="matrix(0.053086419753086415,0,0,0.053086419753086415,38.169135802469135,0)" xlink:href="#bd"/><use transform="matrix(0.053086419753086415,0,0,0.053086419753086415,47.72469135802469,0)" xlink:href="#aS"/><use transform="matrix(0.053086419753086415,0,0,0.053086419753086415,58.341975308641985,0)" xlink:href="#be"/></g><path fill="#fff" d="M153-248C145-148 188 4 80 4 36 3 13-21 6-62l32-5c4 25 16 42 43 43 27 0 39-20 39-49v-147H72v-28h81" id="bv"/><g id="D"><use transform="matrix(0.05925925925925927,0,0,0.05925925925925927,0,0)" xlink:href="#bv"/><use transform="matrix(0.05925925925925927,0,0,0.05925925925925927,10.666666666666668,0)" xlink:href="#aW"/><use transform="matrix(0.05925925925925927,0,0,0.05925925925925927,22.51851851851852,0)" xlink:href="#bm"/><use transform="matrix(0.05925925925925927,0,0,0.05925925925925927,27.200000000000003,0)" xlink:href="#aU"/></g><g id="E"><use transform="matrix(0.05925925925925927,0,0,0.05925925925925927,0,0)" xlink:href="#bn"/><use transform="matrix(0.05925925925925927,0,0,0.05925925925925927,14.222222222222225,0)" xlink:href="#aS"/><use transform="matrix(0.05925925925925927,0,0,0.05925925925925927,26.074074074074076,0)" xlink:href="#be"/></g><g id="F"><use transform="matrix(0.05925925925925927,0,0,0.05925925925925927,0,0)" xlink:href="#br"/><use transform="matrix(0.05925925925925927,0,0,0.05925925925925927,14.222222222222225,0)" xlink:href="#aN"/><use transform="matrix(0.05925925925925927,0,0,0.05925925925925927,26.074074074074076,0)" xlink:href="#ba"/><use transform="matrix(0.05925925925925927,0,0,0.05925925925925927,33.12592592592593,0)" xlink:href="#aR"/><use transform="matrix(0.05925925925925927,0,0,0.05925925925925927,39.05185185185185,0)" xlink:href="#bs"/></g><g id="G"><use transform="matrix(0.05925925925925927,0,0,0.05925925925925927,0,0)" xlink:href="#bm"/><use transform="matrix(0.05925925925925927,0,0,0.05925925925925927,4.681481481481482,0)" xlink:href="#aU"/><use transform="matrix(0.05925925925925927,0,0,0.05925925925925927,16.533333333333335,0)" xlink:href="#aR"/><use transform="matrix(0.05925925925925927,0,0,0.05925925925925927,22.459259259259262,0)" xlink:href="#aW"/></g><use transform="matrix(0.05925925925925927,0,0,0.05925925925925927,0,0)" xlink:href="#aN" id="H"/><path fill="#fff" d="M177-190C167-65 218 103 67 71c-23-6-38-20-44-43l32-5c15 47 100 32 89-28v-30C133-14 115 1 83 1 29 1 15-40 15-95c0-56 16-97 71-98 29-1 48 16 59 35 1-10 0-23 2-32h30zM94-22c36 0 50-32 50-73 0-42-14-75-50-75-39 0-46 34-46 75s6 73 46 73" id="bw"/><g id="I"><use transform="matrix(0.05925925925925927,0,0,0.05925925925925927,0,0)" xlink:href="#bk"/><use transform="matrix(0.05925925925925927,0,0,0.05925925925925927,14.222222222222225,0)" xlink:href="#bm"/><use transform="matrix(0.05925925925925927,0,0,0.05925925925925927,18.903703703703705,0)" xlink:href="#aU"/><use transform="matrix(0.05925925925925927,0,0,0.05925925925925927,30.75555555555556,0)" xlink:href="#bw"/><use transform="matrix(0.05925925925925927,0,0,0.05925925925925927,42.607407407407415,0)" xlink:href="#aO"/><use transform="matrix(0.05925925925925927,0,0,0.05925925925925927,47.2888888888889,0)" xlink:href="#aS"/></g><g id="J"><use transform="matrix(0.05925925925925927,0,0,0.05925925925925927,0,0)" xlink:href="#bk"/><use transform="matrix(0.05925925925925927,0,0,0.05925925925925927,14.222222222222225,0)" xlink:href="#aR"/><use transform="matrix(0.05925925925925927,0,0,0.05925925925925927,20.148148148148152,0)" xlink:href="#ba"/><use transform="matrix(0.05925925925925927,0,0,0.05925925925925927,27.200000000000006,0)" xlink:href="#bm"/><use transform="matrix(0.05925925925925927,0,0,0.05925925925925927,31.881481481481487,0)" xlink:href="#aU"/><use transform="matrix(0.05925925925925927,0,0,0.05925925925925927,43.73333333333334,0)" xlink:href="#bw"/></g><g id="K"><use transform="matrix(0.05925925925925927,0,0,0.05925925925925927,0,0)" xlink:href="#bk"/><use transform="matrix(0.05925925925925927,0,0,0.05925925925925927,14.222222222222225,0)" xlink:href="#aS"/><use transform="matrix(0.05925925925925927,0,0,0.05925925925925927,26.074074074074076,0)" xlink:href="#bl"/><use transform="matrix(0.05925925925925927,0,0,0.05925925925925927,37.92592592592593,0)" xlink:href="#aN"/><use transform="matrix(0.05925925925925927,0,0,0.05925925925925927,49.777777777777786,0)" xlink:href="#ba"/><use transform="matrix(0.05925925925925927,0,0,0.05925925925925927,56.829629629629636,0)" xlink:href="#aN"/><use transform="matrix(0.05925925925925927,0,0,0.05925925925925927,68.68148148148148,0)" xlink:href="#aR"/><use transform="matrix(0.05925925925925927,0,0,0.05925925925925927,74.60740740740741,0)" xlink:href="#aS"/><use transform="matrix(0.05925925925925927,0,0,0.05925925925925927,86.45925925925926,0)" xlink:href="#aV"/></g><g id="L"><use transform="matrix(0.05925925925925927,0,0,0.05925925925925927,0,0)" xlink:href="#aZ"/><use transform="matrix(0.05925925925925927,0,0,0.05925925925925927,11.851851851851853,0)" xlink:href="#be"/></g><path fill="#fff" d="M30-248c118-7 216 8 213 122C240-48 200 0 122 0H30v-248zM63-27c89 8 146-16 146-99s-60-101-146-95v194" id="bx"/><path fill="#fff" d="M106-169C34-169 62-67 57 0H25v-261h32l-1 103c12-21 28-36 61-36 89 0 53 116 60 194h-32v-121c2-32-8-49-39-48" id="by"/><g id="M"><use transform="matrix(0.05925925925925927,0,0,0.05925925925925927,0,0)" xlink:href="#bx"/><use transform="matrix(0.05925925925925927,0,0,0.05925925925925927,15.34814814814815,0)" xlink:href="#aN"/><use transform="matrix(0.05925925925925927,0,0,0.05925925925925927,27.200000000000003,0)" xlink:href="#bs"/><use transform="matrix(0.05925925925925927,0,0,0.05925925925925927,37.866666666666674,0)" xlink:href="#by"/><use transform="matrix(0.05925925925925927,0,0,0.05925925925925927,49.71851851851853,0)" xlink:href="#aS"/><use transform="matrix(0.05925925925925927,0,0,0.05925925925925927,61.57037037037038,0)" xlink:href="#bs"/></g><path fill="#fff" d="M101-234c-31-9-42 10-38 44h38v23H63V0H32v-167H5v-23h27c-7-52 17-82 69-68v24" id="bz"/><g id="N"><use transform="matrix(0.05925925925925927,0,0,0.05925925925925927,0,0)" xlink:href="#bb"/><use transform="matrix(0.05925925925925927,0,0,0.05925925925925927,7.051851851851853,0)" xlink:href="#bd"/><use transform="matrix(0.05925925925925927,0,0,0.05925925925925927,17.718518518518522,0)" xlink:href="#aS"/><use transform="matrix(0.05925925925925927,0,0,0.05925925925925927,29.570370370370377,0)" xlink:href="#be"/><use transform="matrix(0.05925925925925927,0,0,0.05925925925925927,40.23703703703704,0)" xlink:href="#bc"/><use transform="matrix(0.05925925925925927,0,0,0.05925925925925927,52.088888888888896,0)" xlink:href="#bz"/><use transform="matrix(0.05925925925925927,0,0,0.05925925925925927,58.01481481481482,0)" xlink:href="#aW"/><use transform="matrix(0.05925925925925927,0,0,0.05925925925925927,69.86666666666667,0)" xlink:href="#ba"/><use transform="matrix(0.05925925925925927,0,0,0.05925925925925927,76.91851851851852,0)" xlink:href="#aX"/><use transform="matrix(0.05925925925925927,0,0,0.05925925925925927,94.63703703703705,0)" xlink:href="#aN"/><use transform="matrix(0.05925925925925927,0,0,0.05925925925925927,106.4888888888889,0)" xlink:href="#aR"/><use transform="matrix(0.05925925925925927,0,0,0.05925925925925927,112.41481481481482,0)" xlink:href="#aR"/><use transform="matrix(0.05925925925925927,0,0,0.05925925925925927,118.34074074074074,0)" xlink:href="#aS"/><use transform="matrix(0.05925925925925927,0,0,0.05925925925925927,130.1925925925926,0)" xlink:href="#aV"/><use transform="matrix(0.05925925925925927,0,0,0.05925925925925927,142.04444444444445,0)" xlink:href="#bf"/></g><path fill="#fff" d="M63-220v92h138v28H63V0H30v-248h175v28H63" id="bA"/><g id="O"><use transform="matrix(0.05925925925925927,0,0,0.05925925925925927,0,0)" xlink:href="#bA"/><use transform="matrix(0.05925925925925927,0,0,0.05925925925925927,12.97777777777778,0)" xlink:href="#bm"/><use transform="matrix(0.05925925925925927,0,0,0.05925925925925927,17.65925925925926,0)" xlink:href="#aU"/><use transform="matrix(0.05925925925925927,0,0,0.05925925925925927,29.511111111111113,0)" xlink:href="#aV"/></g><g id="P"><use transform="matrix(0.05925925925925927,0,0,0.05925925925925927,0,0)" xlink:href="#br"/><use transform="matrix(0.05925925925925927,0,0,0.05925925925925927,14.222222222222225,0)" xlink:href="#aW"/><use transform="matrix(0.05925925925925927,0,0,0.05925925925925927,26.074074074074076,0)" xlink:href="#bs"/><use transform="matrix(0.05925925925925927,0,0,0.05925925925925927,36.74074074074075,0)" xlink:href="#bm"/><use transform="matrix(0.05925925925925927,0,0,0.05925925925925927,41.42222222222223,0)" xlink:href="#aR"/><use transform="matrix(0.05925925925925927,0,0,0.05925925925925927,47.348148148148155,0)" xlink:href="#bm"/><use transform="matrix(0.05925925925925927,0,0,0.05925925925925927,52.02962962962964,0)" xlink:href="#aW"/><use transform="matrix(0.05925925925925927,0,0,0.05925925925925927,63.881481481481494,0)" xlink:href="#aU"/></g><g id="Q"><use transform="matrix(0.05925925925925927,0,0,0.05925925925925927,0,0)" xlink:href="#aW"/><use transform="matrix(0.05925925925925927,0,0,0.05925925925925927,11.851851851851853,0)" xlink:href="#bz"/></g><g id="R"><use transform="matrix(0.05925925925925927,0,0,0.05925925925925927,0,0)" xlink:href="#aT"/><use transform="matrix(0.05925925925925927,0,0,0.05925925925925927,15.34814814814815,0)" xlink:href="#aN"/><use transform="matrix(0.05925925925925927,0,0,0.05925925925925927,27.200000000000003,0)" xlink:href="#aU"/><use transform="matrix(0.05925925925925927,0,0,0.05925925925925927,39.05185185185186,0)" xlink:href="#aV"/><use transform="matrix(0.05925925925925927,0,0,0.05925925925925927,50.90370370370371,0)" xlink:href="#aW"/><use transform="matrix(0.05925925925925927,0,0,0.05925925925925927,62.75555555555557,0)" xlink:href="#aX"/></g><g id="S"><use transform="matrix(0.05925925925925927,0,0,0.05925925925925927,0,0)" xlink:href="#bq"/><use transform="matrix(0.05925925925925927,0,0,0.05925925925925927,11.851851851851853,0)" xlink:href="#aS"/><use transform="matrix(0.05925925925925927,0,0,0.05925925925925927,23.703703703703706,0)" xlink:href="#aR"/><use transform="matrix(0.05925925925925927,0,0,0.05925925925925927,29.629629629629633,0)" xlink:href="#aR"/><use transform="matrix(0.05925925925925927,0,0,0.05925925925925927,35.55555555555556,0)" xlink:href="#aS"/><use transform="matrix(0.05925925925925927,0,0,0.05925925925925927,47.40740740740741,0)" xlink:href="#ba"/></g><g id="T"><use transform="matrix(0.05925925925925927,0,0,0.05925925925925927,0,0)" xlink:href="#bm"/><use transform="matrix(0.05925925925925927,0,0,0.05925925925925927,4.681481481481482,0)" xlink:href="#aU"/></g><g id="U"><use transform="matrix(0.05925925925925927,0,0,0.05925925925925927,0,0)" xlink:href="#bn"/><use transform="matrix(0.05925925925925927,0,0,0.05925925925925927,14.222222222222225,0)" xlink:href="#aS"/><use transform="matrix(0.05925925925925927,0,0,0.05925925925925927,26.074074074074076,0)" xlink:href="#be"/></g><path fill="#ececf1" d="M688-137c238 0 323-102 359-325h193c-32 297-228 482-552 482-361 0-569-299-569-680 0-197 8-360 73-497 88-186 257-317 513-319 316-2 509 195 535 488h-193c-31-212-118-330-342-330-272 0-397 224-393 523v141c-3 282 115 517 376 517" id="bB"/><path fill="#ececf1" d="M341 0H156v-1536h185V0" id="bC"/><path fill="#ececf1" d="M277-555c0 244 77 420 297 424 127 2 249-93 255-210h175C980-127 805 20 574 20 258 20 81-222 92-562c11-319 164-533 481-540 237-5 426 165 431 392H829c-7-133-115-242-256-240-209 4-296 166-296 395" id="bD"/><path fill="#ececf1" d="M491 20c-241-1-355-148-355-398v-704h185v699c0 164 67 246 200 246 141 0 235-53 282-158v-787h185V0H812l-4-107C736-22 630 20 491 20" id="bE"/><path fill="#ececf1" d="M599-131c141 0 220-65 285-146l113 88C906-50 770 20 589 20 281 21 93-214 93-545c0-223 93-397 233-485 74-48 154-72 240-72 300 2 449 218 445 537v77H278c0 197 129 357 321 357zm227-509c-3-180-88-310-260-310-170 0-264 140-282 310h542" id="bF"/><g id="V"><use transform="matrix(0.010416666666666668,0,0,0.010416666666666668,0,0)" xlink:href="#bB"/><use transform="matrix(0.010416666666666668,0,0,0.010416666666666668,13.885416666666668,0)" xlink:href="#ar"/><use transform="matrix(0.010416666666666668,0,0,0.010416666666666668,25.489583333333336,0)" xlink:href="#bC"/><use transform="matrix(0.010416666666666668,0,0,0.010416666666666668,30.66666666666667,0)" xlink:href="#bD"/><use transform="matrix(0.010416666666666668,0,0,0.010416666666666668,41.83333333333334,0)" xlink:href="#bE"/><use transform="matrix(0.010416666666666668,0,0,0.010416666666666668,53.593750000000014,0)" xlink:href="#bC"/><use transform="matrix(0.010416666666666668,0,0,0.010416666666666668,58.77083333333335,0)" xlink:href="#ar"/><use transform="matrix(0.010416666666666668,0,0,0.010416666666666668,70.37500000000001,0)" xlink:href="#aq"/><use transform="matrix(0.010416666666666668,0,0,0.010416666666666668,77.34375000000001,0)" xlink:href="#bF"/></g><path fill="#ececf1" d="M539-677L361-492V0H169v-1456h192v720l647-720h232L667-813 1285 0h-230" id="bG"/><path fill="#ececf1" d="M494-271l252-811h198L509 167C425 381 299 474 84 421V271c167 16 242-37 283-173l41-110L22-1082h202" id="bH"/><g id="W"><use transform="matrix(0.010416666666666668,0,0,0.010416666666666668,0,0)" xlink:href="#bG"/><use transform="matrix(0.010416666666666668,0,0,0.010416666666666668,13.104166666666668,0)" xlink:href="#bF"/><use transform="matrix(0.010416666666666668,0,0,0.010416666666666668,24.270833333333336,0)" xlink:href="#bH"/></g><path fill="#ececf1" d="M362-157h690V0H169v-1456h193v1299" id="bI"/><g id="X"><use transform="matrix(0.010416666666666668,0,0,0.010416666666666668,0,0)" xlink:href="#bI"/><use transform="matrix(0.010416666666666668,0,0,0.010416666666666668,11.479166666666668,0)" xlink:href="#bF"/><use transform="matrix(0.010416666666666668,0,0,0.010416666666666668,22.781249999999996,0)" xlink:href="#aq"/><use transform="matrix(0.010416666666666668,0,0,0.010416666666666668,29.75,0)" xlink:href="#aq"/><use transform="matrix(0.010416666666666668,0,0,0.010416666666666668,36.71875,0)" xlink:href="#bF"/><use transform="matrix(0.010416666666666668,0,0,0.010416666666666668,48.020833333333336,0)" xlink:href="#as"/></g><path fill="#ececf1" d="M1288 0h-193L362-1122V0H169v-1456h193l735 1127v-1127h191V0" id="bJ"/><path fill="#ececf1" d="M1240-945c-141 0-250 95-250 227V0H804v-709c0-157-77-236-231-236-121 0-204 52-249 155V0H139v-1082h175l5 120c79-93 186-140 321-140 151 0 254 58 309 174 69-98 181-174 345-174 237 0 362 126 362 377V0h-185v-714c-2-159-67-231-231-231" id="bK"/><path fill="#ececf1" d="M634-1102c292 0 422 254 422 573 0 298-143 547-420 549-137 0-242-48-317-145L310 0H140v-1536h185v573c75-93 178-139 309-139zm-44 965c207 0 281-175 281-413 0-224-79-395-283-395-122 0-210 57-263 170v468c57 113 145 170 265 170" id="bL"/><g id="Y"><use transform="matrix(0.010416666666666668,0,0,0.010416666666666668,0,0)" xlink:href="#bJ"/><use transform="matrix(0.010416666666666668,0,0,0.010416666666666668,15.208333333333336,0)" xlink:href="#bE"/><use transform="matrix(0.010416666666666668,0,0,0.010416666666666668,26.968750000000004,0)" xlink:href="#bK"/><use transform="matrix(0.010416666666666668,0,0,0.010416666666666668,45.66666666666667,0)" xlink:href="#bL"/><use transform="matrix(0.010416666666666668,0,0,0.010416666666666668,57.63541666666667,0)" xlink:href="#bF"/><use transform="matrix(0.010416666666666668,0,0,0.010416666666666668,68.9375,0)" xlink:href="#as"/></g><path fill="#ececf1" d="M1098-255l208-827h185L1176 0h-150L763-820 507 0H357L43-1082h184l213 810 252-810h149" id="bM"/><path fill="#ececf1" d="M589-945c-131 0-219 81-264 174V0H140v-1082h175l6 136c83-104 191-156 324-156 229 0 346 129 346 387V0H806v-716c-2-153-65-229-217-229" id="bN"/><g id="Z"><use transform="matrix(0.010416666666666668,0,0,0.010416666666666668,0,0)" xlink:href="#bL"/><use transform="matrix(0.010416666666666668,0,0,0.010416666666666668,11.968750000000002,0)" xlink:href="#bF"/><use transform="matrix(0.010416666666666668,0,0,0.010416666666666668,23.270833333333336,0)" xlink:href="#aq"/><use transform="matrix(0.010416666666666668,0,0,0.010416666666666668,30.239583333333336,0)" xlink:href="#bM"/><use transform="matrix(0.010416666666666668,0,0,0.010416666666666668,46.270833333333336,0)" xlink:href="#bF"/><use transform="matrix(0.010416666666666668,0,0,0.010416666666666668,57.572916666666686,0)" xlink:href="#bF"/><use transform="matrix(0.010416666666666668,0,0,0.010416666666666668,68.87500000000001,0)" xlink:href="#bN"/></g><path fill="#ececf1" d="M729 0H543v-1233l-373 137v-168l530-199h29V0" id="bO"/><use transform="matrix(0.010416666666666668,0,0,0.010416666666666668,0,0)" xlink:href="#bO" id="aa"/><path fill="#ececf1" d="M520 20C244 20 95-247 95-550c0-298 151-550 427-552 127 0 227 43 301 130v-564h185V0H838l-9-116C755-25 652 20 520 20zm48-965c-210 0-288 177-288 416 0 218 87 392 286 392 117 0 203-53 257-158v-497c-55-102-140-153-255-153" id="bP"/><g id="ab"><use transform="matrix(0.010416666666666668,0,0,0.010416666666666668,0,0)" xlink:href="#ar"/><use transform="matrix(0.010416666666666668,0,0,0.010416666666666668,11.604166666666668,0)" xlink:href="#bN"/><use transform="matrix(0.010416666666666668,0,0,0.010416666666666668,23.374999999999996,0)" xlink:href="#bP"/></g><path fill="#ececf1" d="M569-1476c255 0 440 146 439 390 0 143-91 314-274 512L344-151h731V0H121v-133l504-560c75-85 125-155 155-207 105-184 6-424-211-424-183 0-293 113-291 297H93c-3-270 199-449 476-449" id="bQ"/><path fill="#ececf1" d="M132-554c0-555 187-908 715-903v157c-320-8-501 179-526 477 77-88 181-132 314-132 259 0 417 214 417 480 0 286-172 495-451 495-293 0-469-266-469-574zm737 88c0-181-95-335-265-335-133 0-252 96-286 200v68c-6 207 101 397 283 400 175 3 268-150 268-333" id="bR"/><g id="ac"><use transform="matrix(0.010416666666666668,0,0,0.010416666666666668,0,0)" xlink:href="#bQ"/><use transform="matrix(0.010416666666666668,0,0,0.010416666666666668,11.979166666666668,0)" xlink:href="#bR"/></g><g id="ad"><use transform="matrix(0.010416666666666668,0,0,0.010416666666666668,0,0)" xlink:href="#bB"/><use transform="matrix(0.010416666666666668,0,0,0.010416666666666668,13.885416666666668,0)" xlink:href="#ar"/><use transform="matrix(0.010416666666666668,0,0,0.010416666666666668,25.489583333333336,0)" xlink:href="#bC"/><use transform="matrix(0.010416666666666668,0,0,0.010416666666666668,30.66666666666667,0)" xlink:href="#bD"/><use transform="matrix(0.010416666666666668,0,0,0.010416666666666668,41.83333333333334,0)" xlink:href="#bE"/><use transform="matrix(0.010416666666666668,0,0,0.010416666666666668,53.593750000000014,0)" xlink:href="#bC"/><use transform="matrix(0.010416666666666668,0,0,0.010416666666666668,58.77083333333335,0)" xlink:href="#ar"/><use transform="matrix(0.010416666666666668,0,0,0.010416666666666668,70.37500000000001,0)" xlink:href="#aq"/><use transform="matrix(0.010416666666666668,0,0,0.010416666666666668,77.34375000000001,0)" xlink:href="#bF"/></g><path fill="#ececf1" d="M992-673H361v516h733V0H169v-1456h915v158H361v468h631v157" id="bS"/><path fill="#ececf1" d="M584 20C278 26 81-227 91-551c10-320 175-545 491-551 308-5 503 247 494 573-9 322-175 543-492 549zm-2-970c-208 0-305 185-305 421 0 216 106 398 307 398 211 0 307-186 307-420 0-214-109-399-309-399" id="bT"/><path fill="#ececf1" d="M341 0H156v-1082h185V0zm-91-1264c-68 0-108-42-109-105 0-62 41-107 109-107s110 44 110 107-42 105-110 105" id="bU"/><path fill="#ececf1" d="M521 20C240 20 96-239 96-550c0-303 147-552 427-552 132 0 235 47 309 140l9-120h169V-26c4 277-183 454-459 452-165-1-334-81-400-187l96-111c79 98 176 147 291 147 180 1 288-109 286-290v-93C750-23 649 20 521 20zm48-965c-209 0-287 178-287 416 0 217 86 392 285 392 117 0 202-53 257-159v-494c-57-103-142-155-255-155" id="bV"/><g id="ae"><use transform="matrix(0.010416666666666668,0,0,0.010416666666666668,0,0)" xlink:href="#bS"/><use transform="matrix(0.010416666666666668,0,0,0.010416666666666668,12.125000000000002,0)" xlink:href="#bN"/><use transform="matrix(0.010416666666666668,0,0,0.010416666666666668,23.895833333333336,0)" xlink:href="#bD"/><use transform="matrix(0.010416666666666668,0,0,0.010416666666666668,35.0625,0)" xlink:href="#bT"/><use transform="matrix(0.010416666666666668,0,0,0.010416666666666668,47.22916666666667,0)" xlink:href="#bP"/><use transform="matrix(0.010416666666666668,0,0,0.010416666666666668,59.26041666666667,0)" xlink:href="#bU"/><use transform="matrix(0.010416666666666668,0,0,0.010416666666666668,64.4375,0)" xlink:href="#bN"/><use transform="matrix(0.010416666666666668,0,0,0.010416666666666668,76.20833333333333,0)" xlink:href="#bV"/></g><path fill="#ececf1" d="M972-643H361V0H169v-1456h902v158H361v498h611v157" id="bW"/><g id="af"><use transform="matrix(0.010416666666666668,0,0,0.010416666666666668,0,0)" xlink:href="#bW"/><use transform="matrix(0.010416666666666668,0,0,0.010416666666666668,11.437500000000002,0)" xlink:href="#ar"/><use transform="matrix(0.010416666666666668,0,0,0.010416666666666668,23.041666666666668,0)" xlink:href="#bD"/><use transform="matrix(0.010416666666666668,0,0,0.010416666666666668,34.20833333333334,0)" xlink:href="#aq"/><use transform="matrix(0.010416666666666668,0,0,0.010416666666666668,40.96875000000001,0)" xlink:href="#bT"/><use transform="matrix(0.010416666666666668,0,0,0.010416666666666668,53.13541666666667,0)" xlink:href="#as"/></g><path fill="#ececf1" d="M632-1102c291 0 422 251 422 573 0 297-141 548-419 549-131 0-235-42-310-125v521H140v-1498h169l9 120c75-93 180-140 314-140zm-53 971c207 0 290-180 290-419 0-218-92-395-292-395-112 0-196 50-252 149v517c55 99 140 148 254 148" id="bX"/><g id="ag"><use transform="matrix(0.010416666666666668,0,0,0.010416666666666668,0,0)" xlink:href="#bS"/><use transform="matrix(0.010416666666666668,0,0,0.010416666666666668,12.125000000000002,0)" xlink:href="#bN"/><use transform="matrix(0.010416666666666668,0,0,0.010416666666666668,23.895833333333336,0)" xlink:href="#bD"/><use transform="matrix(0.010416666666666668,0,0,0.010416666666666668,35.0625,0)" xlink:href="#as"/><use transform="matrix(0.010416666666666668,0,0,0.010416666666666668,42.46875,0)" xlink:href="#bH"/><use transform="matrix(0.010416666666666668,0,0,0.010416666666666668,52.56249999999999,0)" xlink:href="#bX"/><use transform="matrix(0.010416666666666668,0,0,0.010416666666666668,64.53125,0)" xlink:href="#aq"/></g><path fill="#ececf1" d="M375 0H183v-1456h192V0" id="bY"/><g id="ah"><use transform="matrix(0.010416666666666668,0,0,0.010416666666666668,0,0)" xlink:href="#bY"/><use transform="matrix(0.010416666666666668,0,0,0.010416666666666668,5.802083333333334,0)" xlink:href="#bN"/><use transform="matrix(0.010416666666666668,0,0,0.010416666666666668,17.572916666666668,0)" xlink:href="#bX"/><use transform="matrix(0.010416666666666668,0,0,0.010416666666666668,29.54166666666667,0)" xlink:href="#bE"/><use transform="matrix(0.010416666666666668,0,0,0.010416666666666668,41.30208333333334,0)" xlink:href="#aq"/></g><path fill="#ececf1" d="M1175-1298H707V0H516v-1298H49v-158h1126v158" id="bZ"/><path fill="#ececf1" d="M503-687l240-395h216L605-547 970 0H756L506-405 256 0H41l365-547-354-535h214" id="ca"/><g id="ai"><use transform="matrix(0.010416666666666668,0,0,0.010416666666666668,0,0)" xlink:href="#bZ"/><use transform="matrix(0.010416666666666668,0,0,0.010416666666666668,11.697916666666668,0)" xlink:href="#bF"/><use transform="matrix(0.010416666666666668,0,0,0.010416666666666668,22.999999999999996,0)" xlink:href="#ca"/><use transform="matrix(0.010416666666666668,0,0,0.010416666666666668,33.57291666666667,0)" xlink:href="#aq"/></g><path fill="#ececf1" d="M538-131c121 0 232-49 232-156 0-50-20-88-56-117-73-60-334-92-420-143-92-55-162-110-162-238 0-190 192-317 400-317 223 0 414 129 413 338H759c0-108-110-186-227-186-119 0-215 53-215 159 0 45 18 78 53 101 76 52 331 90 416 139 98 57 169 115 169 251C955-92 760 20 538 20c-176 0-314-68-386-174-38-55-57-115-57-179h185c6 129 116 202 258 202" id="cb"/><g id="aj"><use transform="matrix(0.010416666666666668,0,0,0.010416666666666668,0,0)" xlink:href="#bE"/><use transform="matrix(0.010416666666666668,0,0,0.010416666666666668,11.760416666666668,0)" xlink:href="#cb"/><use transform="matrix(0.010416666666666668,0,0,0.010416666666666668,22.760416666666668,0)" xlink:href="#bU"/><use transform="matrix(0.010416666666666668,0,0,0.010416666666666668,27.937500000000007,0)" xlink:href="#bN"/><use transform="matrix(0.010416666666666668,0,0,0.010416666666666668,39.70833333333334,0)" xlink:href="#bV"/></g><g id="ak"><use transform="matrix(0.010416666666666668,0,0,0.010416666666666668,0,0)" xlink:href="#bW"/><use transform="matrix(0.010416666666666668,0,0,0.010416666666666668,11.437500000000002,0)" xlink:href="#ar"/><use transform="matrix(0.010416666666666668,0,0,0.010416666666666668,23.041666666666668,0)" xlink:href="#bD"/><use transform="matrix(0.010416666666666668,0,0,0.010416666666666668,34.20833333333334,0)" xlink:href="#aq"/><use transform="matrix(0.010416666666666668,0,0,0.010416666666666668,40.96875000000001,0)" xlink:href="#bT"/><use transform="matrix(0.010416666666666668,0,0,0.010416666666666668,53.13541666666667,0)" xlink:href="#as"/></g><g id="al"><use transform="matrix(0.010416666666666668,0,0,0.010416666666666668,0,0)" xlink:href="#ar"/><use transform="matrix(0.010416666666666668,0,0,0.010416666666666668,11.604166666666668,0)" xlink:href="#bN"/><use transform="matrix(0.010416666666666668,0,0,0.010416666666666668,23.374999999999996,0)" xlink:href="#bP"/></g><path fill="#ececf1" d="M1216-1011c-1 297-202 441-512 441H361V0H169v-1456h537c297-6 510 164 510 445zm-192 2c1-178-126-288-307-289H361v571h345c196 1 318-92 318-282" id="cc"/><g id="am"><use transform="matrix(0.010416666666666668,0,0,0.010416666666666668,0,0)" xlink:href="#cc"/><use transform="matrix(0.010416666666666668,0,0,0.010416666666666668,13.458333333333336,0)" xlink:href="#as"/><use transform="matrix(0.010416666666666668,0,0,0.010416666666666668,20.677083333333336,0)" xlink:href="#bU"/><use transform="matrix(0.010416666666666668,0,0,0.010416666666666668,25.854166666666668,0)" xlink:href="#bN"/><use transform="matrix(0.010416666666666668,0,0,0.010416666666666668,37.62500000000001,0)" xlink:href="#aq"/></g><path fill="#ececf1" d="M1161-1018c0 201-122 330-278 388l342 618V0h-206L703-589H361V0H168v-1456h482c310-2 511 139 511 438zm-193 0c0-187-120-280-313-280H361v552h295c179 3 313-101 312-272" id="cd"/><g id="an"><use transform="matrix(0.010416666666666668,0,0,0.010416666666666668,0,0)" xlink:href="#cd"/><use transform="matrix(0.010416666666666668,0,0,0.010416666666666668,13.135416666666668,0)" xlink:href="#bF"/><use transform="matrix(0.010416666666666668,0,0,0.010416666666666668,24.437499999999996,0)" xlink:href="#cb"/><use transform="matrix(0.010416666666666668,0,0,0.010416666666666668,35.4375,0)" xlink:href="#bE"/><use transform="matrix(0.010416666666666668,0,0,0.010416666666666668,47.19791666666667,0)" xlink:href="#bC"/><use transform="matrix(0.010416666666666668,0,0,0.010416666666666668,52.37500000000001,0)" xlink:href="#aq"/></g><g id="ao"><use transform="matrix(0.010416666666666668,0,0,0.010416666666666668,0,0)" xlink:href="#bS"/><use transform="matrix(0.010416666666666668,0,0,0.010416666666666668,12.125000000000002,0)" xlink:href="#bN"/><use transform="matrix(0.010416666666666668,0,0,0.010416666666666668,23.895833333333336,0)" xlink:href="#bP"/></g></defs></g></svg>